<svg width="364" height="620" viewBox="0 0 364 620" fill="none" xmlns="http://www.w3.org/2000/svg">
<path fill-rule="evenodd" clip-rule="evenodd" d="M351.618 69.7536C397.482 147.605 297.92 235.591 277.809 323.681C261.178 396.526 297.368 487.162 244.31 539.774C191.21 592.427 101.525 559.168 27.7855 571.6C-41.4168 583.267 -110.764 640.88 -173.923 610.285C-237.13 579.666 -243.487 493.46 -268.778 427.939C-289.759 373.584 -308.464 320.339 -308.329 262.075C-308.181 197.856 -309.527 127.475 -267.968 78.5159C-226.028 29.108 -155.823 19.419 -92.1402 7.39389C-29.9023 -4.35833 30.4785 1.50345 93.1999 10.3175C182.924 22.9261 305.628 -8.31224 351.618 69.7536Z" fill="url(#paint0_linear)"/>
<defs>
<linearGradient id="paint0_linear" x1="363.165" y1="89.747" x2="-280.292" y2="461.247" gradientUnits="userSpaceOnUse">
<stop stop-color="#174AFF"/>
<stop offset="1" stop-color="#00FFF0" stop-opacity="0"/>
</linearGradient>
</defs>
</svg>
