<?xml version="1.0" standalone="no"?>
<!DOCTYPE svg PUBLIC "-//W3C//DTD SVG 20010904//EN"
 "http://www.w3.org/TR/2001/REC-SVG-20010904/DTD/svg10.dtd">
<svg version="1.0" xmlns="http://www.w3.org/2000/svg"
 width="545.000000pt" height="545.000000pt" viewBox="0 0 545.000000 545.000000"
 preserveAspectRatio="xMidYMid meet">
<metadata>
Created by potrace 1.14, written by Peter Selinger 2001-2017
</metadata>
<g transform="translate(0.000000,545.000000) scale(0.100000,-0.100000)"
fill="#000000" stroke="none">
<path d="M2528 5445 c-1 -2 -39 -6 -83 -9 -44 -4 -87 -9 -95 -11 -8 -2 -33 -6
-55 -10 -76 -11 -101 -16 -205 -41 -410 -97 -806 -298 -1130 -573 -86 -73
-244 -231 -305 -306 -28 -33 -53 -62 -56 -65 -15 -12 -169 -233 -200 -287 -18
-32 -35 -60 -39 -63 -14 -12 -122 -235 -163 -340 -43 -107 -102 -286 -111
-334 -2 -12 -9 -39 -15 -61 -16 -59 -49 -260 -58 -351 -10 -99 -10 -434 0
-534 47 -489 229 -959 523 -1357 93 -126 129 -166 269 -308 276 -278 617 -495
990 -630 124 -45 344 -106 430 -119 36 -6 70 -11 129 -22 143 -25 607 -25 748
1 9 2 38 7 65 10 231 34 558 141 788 258 103 53 286 164 363 220 157 114 372
314 478 442 27 33 52 62 55 65 18 14 175 242 222 323 203 347 323 715 365
1117 9 90 8 460 -2 545 -21 190 -76 451 -113 545 -3 8 -7 20 -9 25 -13 54 -88
235 -143 349 -210 431 -537 803 -941 1071 -125 84 -168 108 -325 184 -258 125
-515 204 -785 242 -41 5 -86 12 -100 15 -28 6 -486 14 -492 9z"/>
</g>
</svg>
