<svg width="30" height="30" viewBox="0 0 30 30" fill="none" xmlns="http://www.w3.org/2000/svg">
<circle cx="15" cy="15" r="12" fill="white" stroke="#E4E4E4"/>
<path d="M6.92307 18.4638C8.03896 20.3906 9.80165 21.8735 11.9024 22.5943C12.361 22.6807 12.5281 22.389 12.5281 22.1384C12.5281 22.0347 12.5264 21.8514 12.5242 21.6061C12.5216 21.322 12.5182 20.9548 12.5157 20.5317C9.96596 21.1025 9.42798 19.2649 9.42798 19.2649C9.01098 18.1739 8.40997 17.8833 8.40997 17.8833C7.57768 17.2969 8.473 17.3085 8.473 17.3085C9.39309 17.3758 9.87705 18.2824 9.87705 18.2824C10.6947 19.7261 12.0228 19.309 12.545 19.0677C12.6283 18.457 12.8646 18.0405 13.1269 17.8044C11.0914 17.566 8.95133 16.7552 8.95133 13.1346C8.95133 12.1033 9.30867 11.26 9.89505 10.5993C9.80051 10.3603 9.48594 9.3998 9.98453 8.0988C9.98453 8.0988 10.7544 7.84475 12.5056 9.06745C13.2366 8.85806 14.0211 8.75307 14.8005 8.74959C15.5788 8.75307 16.3632 8.85806 17.0954 9.06745C18.8455 7.84475 19.6136 8.0988 19.6136 8.0988C20.1139 9.3998 19.7993 10.3603 19.7048 10.5993C20.2923 11.26 20.6474 12.1033 20.6474 13.1346C20.6474 16.7644 18.5039 17.5631 16.4617 17.7969C16.7909 18.0886 17.0841 18.6652 17.0841 19.5468C17.0841 20.3913 17.0791 21.1268 17.0757 21.6141C17.0741 21.8554 17.0728 22.0358 17.0728 22.1384C17.0728 22.3913 17.2377 22.6854 17.7031 22.5932C19.3766 22.0174 20.8353 20.9583 21.9231 19.5765C20.2424 21.712 17.6759 23.0769 14.8002 23.0769C11.4519 23.0769 8.52281 21.2265 6.92307 18.4638Z" fill="#454545"/>
</svg>
