<svg width="555" height="609" viewBox="0 0 555 609" fill="none" xmlns="http://www.w3.org/2000/svg">
<path fill-rule="evenodd" clip-rule="evenodd" d="M1.84754 381.951C-10.91 297.49 107.454 255.449 156.172 185.285C196.46 127.263 196.697 35.0022 261.794 7.57934C326.943 -19.8658 393.866 40.9469 462.926 56.0602C527.736 70.2436 608.885 44.1811 653.483 93.2982C698.116 142.453 673.277 220.303 672.341 286.691C671.565 341.766 669.185 395.064 648.51 446.117C625.722 502.388 602.071 564.591 548.348 592.868C494.132 621.404 429.141 605.132 369.045 593.21C310.312 581.559 259.423 555.114 207.523 525.254C133.279 482.54 14.6402 466.645 1.84754 381.951Z" fill="#000349"/>
</svg>
