<svg width="588" height="616" viewBox="0 0 588 616" fill="none" xmlns="http://www.w3.org/2000/svg">
<path fill-rule="evenodd" clip-rule="evenodd" d="M3.69193 442.653C-21.5768 355.902 96.5937 295.159 137.789 214.739C171.855 148.237 159.112 51.4781 223.496 13.5614C287.933 -24.3862 366.658 29.9448 441.188 36.0643C511.131 41.8072 592.536 3.05631 646.209 48.2695C699.924 93.5174 684.845 178.632 693.213 248.365C700.155 306.213 705.166 362.426 690.68 418.86C674.713 481.063 658.677 549.606 606.336 586.816C553.516 624.368 483.088 616.461 418.406 612.425C355.191 608.48 298.116 587.923 239.499 563.927C155.648 529.6 29.0303 529.644 3.69193 442.653Z" fill="#174AFF"/>
</svg>
