<svg width="105" height="45" viewBox="0 0 105 45" fill="none" xmlns="http://www.w3.org/2000/svg">
<path fill-rule="evenodd" clip-rule="evenodd" d="M92.332 36.0037C82.2881 43.516 68.2674 30.5039 55.798 31.9531C44.2129 33.2995 35.3834 45.8416 23.8654 43.9607C11.2279 41.8971 -1.18033 33.5034 -6.38804 21.7984C-11.5344 10.2314 -8.24931 -3.80908 -2.36324 -14.9914C2.61038 -24.4402 13.8972 -27.6138 22.7571 -33.5712C29.5546 -38.1418 35.9041 -42.4544 43.3996 -45.7623C53.857 -50.3774 63.8042 -58.8359 75.0379 -56.6438C87.1931 -54.2718 98.942 -45.6058 103.412 -34.0515C107.793 -22.7281 99.1987 -11.0692 97.3042 0.909135C95.4122 12.8714 102.023 28.7555 92.332 36.0037Z" fill="#000349"/>
</svg>
